<?xml version="1.0" encoding="UTF-8"?>
<svg xmlns="http://www.w3.org/2000/svg" width="928.9" height="1092.7" xmlns:xlink="http://www.w3.org/1999/xlink" viewBox="0 0 928.9 1092.7">
  <defs>
    <linearGradient id="linear-gradient" x1="587.42" y1="172.83" x2="411.94" y2="834.79" gradientUnits="userSpaceOnUse">
      <stop offset="0" stop-color="#fff"/>
      <stop offset=".87" stop-color="#02adef"/>
    </linearGradient>
    <linearGradient id="linear-gradient-2" x1="317.02" y1="-2405.86" x2="486.74" y2="-2405.86" gradientTransform="translate(0 -1866.28) scale(1 -1)" gradientUnits="userSpaceOnUse">
      <stop offset="0" stop-color="#223654"/>
      <stop offset=".27" stop-color="#2a59be"/>
      <stop offset=".55" stop-color="#43ccf7"/>
    </linearGradient>
    <linearGradient id="linear-gradient-3" x1="425.44" y1="-2222.75" x2="518.23" y2="-2222.75" gradientTransform="translate(0 -1866.28) scale(1 -1)" gradientUnits="userSpaceOnUse">
      <stop offset="0" stop-color="#223654"/>
      <stop offset=".27" stop-color="#2a59be"/>
      <stop offset=".55" stop-color="#58d3f9"/>
    </linearGradient>
    <linearGradient id="linear-gradient-4" x1="478.92" y1="-2448.45" x2="525.61" y2="-2448.45" gradientTransform="translate(0 -1866.28) scale(1 -1)" gradientUnits="userSpaceOnUse">
      <stop offset=".15" stop-color="#1c2538"/>
      <stop offset=".27" stop-color="#223654"/>
      <stop offset=".55" stop-color="#2a59be"/>
    </linearGradient>
  </defs>
  <g id="Layer_1" data-name="Layer 1">
    <g id="Layer_1-2" data-name="Layer 1">
      <g id="Layer_4" data-name="Layer 4">
        <polygon points="491.8 161 100.4 366.2 100.4 792 482.8 1022 856.5 801.6 847.5 373.2 491.8 161" style="fill: url(#linear-gradient); stroke-width: 0px;"/>
      </g>
    </g>
    <path d="m707.4,853.7c1.2,2.3,2.2,3.6,2.9,4.4,5.1-2.8,10.3-9.1,12.7-12.1.7-.8,1.3-1.7,2-2.5l-17.6,10.2Zm-134.5,83.5c-.8,1.3-1.7,2.7-2.5,4.1,3,1,5.6,3.3,6.9,6.5.7,1.5,1,3.1,1,4.7,3.6-5.8,7.8-11,12.9-15.8,7.4-8.7,14.3-18.5,20.9-28l-32.9,19c-2,3-4.2,6.1-6.3,9.5Zm-212.4-7.1l-32.8-19c6.1,8.7,12.4,17.6,19.2,25.5,2.7,2.5,5.2,5.2,7.4,8l6.2,3.7c.1-.2.2-.4.2-.6,1.3-3.1,3.9-5.4,6.9-6.5-.8-1.4-1.6-2.8-2.5-4.1-1.5-2.4-3-4.7-4.6-7Zm-132.6-71.9c.6-.7,1.3-1.7,2.2-3.3l-14.8-8.5c2.5,2.9,7.7,9.1,12.6,11.8Zm491.3-597.8l-5.5-3.2-245.9-141.9-244.1,141-5.2,3-163.9,94.6v477l148.9,85.9,62.5,36.1,77.7,44.8,37.6,21.7,31.3,18.1,30.1,17.4,25.2,14.5,26.1-15.1,31.4-18.1,31.7-18.3,38-21.9,79.4-45.8,61.5-35.5,145-83.9v-477l-161.8-93.4Zm-11.8,593.3l-29.2,16.9-2.7,1.6-63.2,36.5-32.9,19-109.1,63-1.9,1.1-.4.2-107.3-61.9-32.8-19-65.9-37.9-2.7-1.6-29.2-16.8-14.8-8.5-62-35.8-31.8-18.3v-399.7l113.8-65.7,36.3-20.9,196.3-113.2,197.9,114.3,36.3,20.9,111.8,64.6v399.7l-27.3,15.8-61.7,35.6-17.5,10.1Zm-492-7.4c2.5,3,7.6,9.2,12.5,11.8.6-.7,1.3-1.7,2.2-3.3l-14.7-8.5Zm149.8,90.9c-1.6-2.5-3.1-4.8-4.7-7.1l-32.8-19c6.1,8.7,12.4,17.6,19.2,25.5,2.7,2.5,5.2,5.2,7.4,8l6.2,3.7c.1-.2.2-.4.2-.6,1.3-3.1,3.9-5.4,6.9-6.5-.7-1.3-1.6-2.7-2.4-4Zm214.1-9.5c-2.1,3-4.2,6.2-6.4,9.5-.8,1.3-1.7,2.7-2.5,4.1,3,1,5.6,3.3,6.9,6.5.7,1.5,1,3.1,1,4.7,3.6-5.8,7.8-11,12.9-15.8,7.4-8.7,14.3-18.5,20.9-28l-32.8,19Zm128.1-74c1.2,2.3,2.2,3.6,2.9,4.4,5.1-2.8,10.3-9.1,12.7-12.1.7-.8,1.3-1.7,2-2.5l-17.6,10.2Z" style="fill: #2a59be; stroke-width: 0px;"/>
  </g>
  <g id="Layer_8" data-name="Layer 8">
    <g id="Layer_1-3" data-name="Layer 1">
      <path d="m413.63,696.91c-14.18,0-29.58-3.63-46.06-10.9-27.09-11.94-43.5-30.72-48.75-55.8-7.61-36.31,8.81-85.02,48.8-144.8,30.7-45.89,65.62-83.94,77.1-96.44,1.16-1.27,2.37-2.58,2.78-3.05,2.87-3.78,8.21-4.85,12.36-2.31,4.42,2.7,5.82,8.47,3.12,12.9-.62,1.02-.98,1.41-4.43,5.16-87.15,94.93-131.38,176.83-121.35,224.7,4,19.08,16.41,32.98,37.95,42.47,24.06,10.6,44.67,12.12,61.26,4.52,23.73-10.87,31.88-36.79,31.96-37.05,1.52-4.96,6.76-7.75,11.71-6.24,4.96,1.52,7.75,6.76,6.24,11.71-.43,1.39-10.78,34.28-42.09,48.63-9.44,4.33-19.66,6.48-30.6,6.48h0Zm33.34-310.19s0,.01-.01.01c0,0,0-.01.01-.01Zm0-.01h0Zm.62-.88h0Z" style="fill: url(#linear-gradient-2); stroke-width: 0px;"/>
      <path d="m471.85,402.85c-2.67,0-5.38-.23-8.1-.71-12.2-2.16-22.83-8.94-29.93-19.09-7.1-10.15-9.82-22.46-7.66-34.66h0c4.45-25.19,28.56-42.05,53.75-37.6,12.2,2.16,22.83,8.94,29.93,19.09,7.1,10.15,9.82,22.46,7.66,34.66-3.97,22.47-23.59,38.31-45.65,38.31Zm-.03-74.01c-13.14,0-24.82,9.43-27.18,22.81h0c-1.28,7.27.34,14.59,4.56,20.64s10.56,10.08,17.82,11.37c1.62.29,3.23.42,4.82.42,13.14,0,24.82-9.43,27.18-22.81,1.28-7.27-.34-14.59-4.56-20.64-4.23-6.04-10.56-10.08-17.82-11.37-1.62-.29-3.23-.42-4.82-.42h0Zm-36.42,21.18h0Z" style="fill: url(#linear-gradient-3); stroke-width: 0px;"/>
    </g>
    <g id="Layer_2-2" data-name="Layer 2">
      <g>
        <path d="m581.34,656.53l-4.34,41.18-6.92,65.6s-47.6-1.77-98.52-26.03c-22.24-10.6-42.76-19.23-62.62-24.77h-.01c-1.58-.45-3.15-.87-4.73-1.27-.01,0-.02,0-.03,0h-.01c-12.45-3.19-24.66-5.1-36.91-5.47-11.24-.34-22.51.62-34.02,3.11l14.85-110.98s45.63-13.37,117.64,19.82c18.82,8.68,35.7,15.47,50.37,20.77h0c41.45,14.98,65.22,18.04,65.22,18.04h.01Z" style="fill: #33ae1a; stroke-width: 0px;"/>
        <path d="m358.29,607.89l-11.81,89.75s62.64-6.47,111.53,21.87c48.89,28.34,101.83,33.22,101.83,33.22l8.47-87.34s-75.49-24.3-112-41.45c-36.52-17.14-98.01-16.05-98.01-16.05h0Z" style="fill: #91d025; stroke-width: 0px;"/>
      </g>
      <path d="m593.87,649.35l-7.54,40.72-12.01,64.85s-47.32-5.48-96.19-33.63c-21.35-12.3-41.13-22.51-60.49-29.58h-.01c-1.54-.57-3.08-1.11-4.62-1.63-.01,0-.02-.01-.03-.01h-.01c-12.16-4.15-24.19-7-36.37-8.33-11.18-1.21-22.5-1.13-34.16.45l23.46-109.48s46.53-9.78,115.74,28.93c18.09,10.12,34.39,18.21,48.6,24.64h0c40.16,18.16,63.62,23.07,63.62,23.07h0Z" style="fill: #3bc81e; stroke-width: 0px;"/>
      <path d="m375.3,583.48l-18.77,88.55s62.95-1.56,109.48,30.5c46.53,32.06,98.92,41.06,98.92,41.06l15.25-86.41s-73.36-30.11-108.43-50.05c-35.07-19.94-96.46-23.64-96.46-23.64h.01Z" style="fill: #a3ea2a; stroke-width: 0px;"/>
      <ellipse cx="477.57" cy="658.09" rx="30.36" ry="36.21" transform="translate(-329.7 560.8) rotate(-47.16)" style="fill: #3bc81e; stroke-width: 0px;"/>
      <path d="m360.82,651.78s13.26,1.97,11.54,20.85c0,0-12.87-.42-15.83-.6l4.29-20.25h0Z" style="fill: #3bc81e; stroke-width: 0px;"/>
      <path d="m371.15,602.99s16.87,4.26,19.46-18.08l-15.32-1.47-4.14,19.55h0Z" style="fill: #3bc81e; stroke-width: 0px;"/>
      <path d="m549.11,739.93s5.04-16.32,18.9-13.77l-3.08,17.43-15.83-3.66h0Z" style="fill: #3bc81e; stroke-width: 0px;"/>
      <path d="m567.28,651.78s-7.48,18.22,9.78,23.13l3.13-17.73-12.91-5.4h0Z" style="fill: #3bc81e; stroke-width: 0px;"/>
      <path d="m466.98,680.58l1.37-5.87c-3.36-.84-6.6-2.7-8.3-4.63l2.3-3.57c1.77,1.88,4.53,3.69,7.79,4.45,4.13.96,7.47-.77,8.24-4.08.75-3.2-1.06-5.7-4.96-8.45-5.39-3.71-8.43-7.23-7.25-12.29,1.12-4.82,5.41-7.69,10.96-7.32l1.37-5.87,3.6.84-1.31,5.64c3.46.93,5.63,2.41,7.09,3.79l-2.35,3.5c-1.06-.98-3.14-2.82-6.87-3.68-4.48-1.04-6.79,1.24-7.33,3.56-.71,3.03,1.09,5.04,5.66,8.31,5.42,3.84,7.74,7.57,6.53,12.74-1.07,4.59-5.27,8.15-11.49,7.75l-1.41,6.04-3.66-.85h.02Z" style="fill: #223654; stroke-width: 0px;"/>
      <path d="m440.43,701.31s12.92-6.7,21.91-30.7c8.99-24,19.31-68.96,19.31-68.96l5.08,2.81s-9.01,93.35-8.71,114.33c.02,1.01.05,1.85.11,2.51,1.3,14.29-.06-.65-.06-.65l-37.64-19.34h0Z" style="isolation: isolate; opacity: .13; stroke-width: 0px;"/>
      <path d="m473.07,646.51s24.97,37,34.67,59.82c9.7,22.82,33.19,41.33,33.19,41.33l20.87,5.13s-32.96-33.7-41.82-50.45c-8.86-16.75-22.08-47.55-22.08-47.55l-15.37-12.58-9.45,4.3h0Z" style="isolation: isolate; opacity: .13; stroke-width: 0px;"/>
      <path d="m530.25,626.28c-98.94-16.33-148.44,48.22-153.65,55.47-11.18-1.21-22.5-1.13-34.16.45l23.46-109.48s46.53-9.78,115.74,28.93c18.09,10.12,34.39,18.21,48.6,24.64h0Z" style="isolation: isolate; opacity: .05; stroke-width: 0px;"/>
      <path d="m586.33,690.07l-12.01,64.85s-47.32-5.48-96.19-33.63c-21.35-12.3-41.13-22.51-60.49-29.58,22.08,7.5,117.16,36.5,168.18-1.65h.51Z" style="isolation: isolate; opacity: .05; stroke-width: 0px;"/>
      <path d="m347.15,682.4l-3.68,7.67s84.56,4.54,114.54,29.45c29.98,24.9,113.03,34.71,113.03,34.71,0,0-79.1-26.8-144.23-59.56,0,0-52.7-18.56-79.66-12.27h0Z" style="isolation: isolate; opacity: .33; stroke-width: 0px;"/>
    </g>
    <g id="Layer_4-3" data-name="Layer 4">
      <path d="m482.49,640.17l-9.1,3.8,7.59,8.95s6.63,7.81,8.03,7.73c1.41-.09,9.11-6.03,9.11-6.03l-1.75-7.98-13.89-6.47h0Z" style="isolation: isolate; opacity: .35; stroke-width: 0px;"/>
      <path d="m478.92,642.66s23.96-34.8,23.35-82.61h-11.67s34.19-52.49,34.98-49.65-12.78,117.94-31.75,143.56c0,0-13.34,1.84-14.91-11.31h0Z" style="fill: url(#linear-gradient-4); stroke-width: 0px;"/>
    </g>
    <g id="Layer_3-2" data-name="Layer 3">
      <g id="circle">
        <g>
          <g style="opacity: .27;">
            <line x1="474.32" y1="888.96" x2="474.32" y2="862.66" style="fill: none; stroke: #fff; stroke-miterlimit: 10; stroke-width: 2.89px;"/>
            <line x1="438.16" y1="886.79" x2="438.16" y2="862.66" style="fill: none; stroke: #fff; stroke-miterlimit: 10; stroke-width: 2.89px;"/>
            <line x1="398.19" y1="881.35" x2="406.35" y2="855.52" style="fill: none; stroke: #fff; stroke-miterlimit: 10; stroke-width: 2.89px;"/>
            <line x1="362.56" y1="870.74" x2="373.17" y2="847.09" style="fill: none; stroke: #fff; stroke-miterlimit: 10; stroke-width: 2.89px;"/>
            <line x1="327.76" y1="858.78" x2="342.44" y2="833.49" style="fill: none; stroke: #fff; stroke-miterlimit: 10; stroke-width: 2.89px;"/>
            <line x1="296.76" y1="838.93" x2="312.26" y2="815.82" style="fill: none; stroke: #fff; stroke-miterlimit: 10; stroke-width: 2.89px;"/>
            <line x1="512.13" y1="884.34" x2="508.59" y2="858.78" style="fill: none; stroke: #fff; stroke-miterlimit: 10; stroke-width: 2.89px;"/>
            <line x1="548.29" y1="874.82" x2="540.68" y2="851.71" style="fill: none; stroke: #fff; stroke-miterlimit: 10; stroke-width: 2.89px;"/>
            <line x1="582.01" y1="862.59" x2="570.59" y2="838.93" style="fill: none; stroke: #fff; stroke-miterlimit: 10; stroke-width: 2.89px;"/>
            <line x1="615.73" y1="844.1" x2="600.77" y2="822.34" style="fill: none; stroke: #fff; stroke-miterlimit: 10; stroke-width: 2.89px;"/>
            <line x1="647" y1="822.88" x2="629.87" y2="804.12" style="fill: none; stroke: #fff; stroke-miterlimit: 10; stroke-width: 2.89px;"/>
            <line x1="673.65" y1="798.69" x2="655.71" y2="781.55" style="fill: none; stroke: #fff; stroke-miterlimit: 10; stroke-width: 2.89px;"/>
            <line x1="696.76" y1="770.13" x2="674.74" y2="753.82" style="fill: none; stroke: #fff; stroke-miterlimit: 10; stroke-width: 2.89px;"/>
            <line x1="719.61" y1="741.31" x2="695.95" y2="726.63" style="fill: none; stroke: #fff; stroke-miterlimit: 10; stroke-width: 2.89px;"/>
            <line x1="734.02" y1="707.59" x2="710.91" y2="696.99" style="fill: none; stroke: #fff; stroke-miterlimit: 10; stroke-width: 2.89px;"/>
            <line x1="748.7" y1="671.42" x2="722.32" y2="663.81" style="fill: none; stroke: #fff; stroke-miterlimit: 10; stroke-width: 2.89px;"/>
            <line x1="756.31" y1="634.98" x2="728.58" y2="631.45" style="fill: none; stroke: #fff; stroke-miterlimit: 10; stroke-width: 2.89px;"/>
            <line x1="761.21" y1="596.92" x2="731.57" y2="596.92" style="fill: none; stroke: #fff; stroke-miterlimit: 10; stroke-width: 2.89px;"/>
            <line x1="757.41" y1="556.94" x2="726.95" y2="563.19" style="fill: none; stroke: #fff; stroke-miterlimit: 10; stroke-width: 2.89px;"/>
            <line x1="750.6" y1="522.95" x2="722.6" y2="530.29" style="fill: none; stroke: #fff; stroke-miterlimit: 10; stroke-width: 2.89px;"/>
            <line x1="742.18" y1="487.6" x2="713.35" y2="497.12" style="fill: none; stroke: #fff; stroke-miterlimit: 10; stroke-width: 2.89px;"/>
            <line x1="727.76" y1="451.43" x2="700.84" y2="463.94" style="fill: none; stroke: #fff; stroke-miterlimit: 10; stroke-width: 2.89px;"/>
            <line x1="704.92" y1="420.16" x2="681.81" y2="437.29" style="fill: none; stroke: #fff; stroke-miterlimit: 10; stroke-width: 2.89px;"/>
            <line x1="682.9" y1="390.79" x2="661.14" y2="410.64" style="fill: none; stroke: #fff; stroke-miterlimit: 10; stroke-width: 2.89px;"/>
            <line x1="654.62" y1="365.78" x2="635.58" y2="387.8" style="fill: none; stroke: #fff; stroke-miterlimit: 10; stroke-width: 2.89px;"/>
            <line x1="625.79" y1="342.12" x2="608.66" y2="367.14" style="fill: none; stroke: #fff; stroke-miterlimit: 10; stroke-width: 2.89px;"/>
            <line x1="592.62" y1="324.99" x2="579.57" y2="350.27" style="fill: none; stroke: #fff; stroke-miterlimit: 10; stroke-width: 2.89px;"/>
            <line x1="559.99" y1="309.48" x2="548.29" y2="337.77" style="fill: none; stroke: #fff; stroke-miterlimit: 10; stroke-width: 2.89px;"/>
            <line x1="523.82" y1="300.78" x2="516.75" y2="326.34" style="fill: none; stroke: #fff; stroke-miterlimit: 10; stroke-width: 2.89px;"/>
            <line x1="485.48" y1="294.8" x2="483.85" y2="323.63" style="fill: none; stroke: #fff; stroke-miterlimit: 10; stroke-width: 2.89px;"/>
            <line x1="449.04" y1="293.71" x2="449.04" y2="323.63" style="fill: none; stroke: #fff; stroke-miterlimit: 10; stroke-width: 2.89px;"/>
            <line x1="409.34" y1="298.88" x2="413.41" y2="323.63" style="fill: none; stroke: #fff; stroke-miterlimit: 10; stroke-width: 2.89px;"/>
            <line x1="374.53" y1="308.67" x2="381.33" y2="332.6" style="fill: none; stroke: #fff; stroke-miterlimit: 10; stroke-width: 2.89px;"/>
            <line x1="339.45" y1="320.64" x2="350.87" y2="345.11" style="fill: none; stroke: #fff; stroke-miterlimit: 10; stroke-width: 2.89px;"/>
            <line x1="306.28" y1="337.77" x2="319.87" y2="360.61" style="fill: none; stroke: #fff; stroke-miterlimit: 10; stroke-width: 2.89px;"/>
            <line x1="276.91" y1="360.33" x2="292.13" y2="379.91" style="fill: none; stroke: #fff; stroke-miterlimit: 10; stroke-width: 2.89px;"/>
            <line x1="248.36" y1="383.99" x2="266.84" y2="400.58" style="fill: none; stroke: #fff; stroke-miterlimit: 10; stroke-width: 2.89px;"/>
            <line x1="225.24" y1="412" x2="244.82" y2="428.59" style="fill: none; stroke: #fff; stroke-miterlimit: 10; stroke-width: 2.89px;"/>
            <line x1="203.49" y1="442.19" x2="227.14" y2="457.41" style="fill: none; stroke: #fff; stroke-miterlimit: 10; stroke-width: 2.89px;"/>
            <line x1="186.9" y1="475.91" x2="211.91" y2="487.6" style="fill: none; stroke: #fff; stroke-miterlimit: 10; stroke-width: 2.89px;"/>
            <line x1="175.21" y1="511.8" x2="203.49" y2="519.69" style="fill: none; stroke: #fff; stroke-miterlimit: 10; stroke-width: 2.89px;"/>
            <line x1="165.69" y1="549.06" x2="195.06" y2="551.5" style="fill: none; stroke: #fff; stroke-miterlimit: 10; stroke-width: 2.89px;"/>
            <line x1="163.78" y1="584.13" x2="192.88" y2="584.68" style="fill: none; stroke: #fff; stroke-miterlimit: 10; stroke-width: 2.89px;"/>
            <line x1="165.14" y1="624.65" x2="194.52" y2="618.94" style="fill: none; stroke: #fff; stroke-miterlimit: 10; stroke-width: 2.89px;"/>
            <line x1="171.4" y1="661.36" x2="198.86" y2="652.66" style="fill: none; stroke: #fff; stroke-miterlimit: 10; stroke-width: 2.89px;"/>
            <line x1="184.99" y1="695.9" x2="211.1" y2="685.83" style="fill: none; stroke: #fff; stroke-miterlimit: 10; stroke-width: 2.89px;"/>
            <line x1="198.05" y1="730.7" x2="225.24" y2="716.02" style="fill: none; stroke: #fff; stroke-miterlimit: 10; stroke-width: 2.89px;"/>
            <line x1="218.17" y1="763.06" x2="242.37" y2="745.93" style="fill: none; stroke: #fff; stroke-miterlimit: 10; stroke-width: 2.89px;"/>
            <line x1="240.19" y1="791.61" x2="263.85" y2="770.95" style="fill: none; stroke: #fff; stroke-miterlimit: 10; stroke-width: 2.89px;"/>
            <line x1="267.93" y1="817.45" x2="285.61" y2="796.78" style="fill: none; stroke: #fff; stroke-miterlimit: 10; stroke-width: 2.89px;"/>
          </g>
          <rect x="208.15" y="654.24" width="15.07" height="15.07" transform="translate(-138.44 62.56) rotate(-12.53)" style="fill: #fff; stroke: #fff; stroke-miterlimit: 10; stroke-width: .83px;"/>
          <rect x="225.32" y="476.57" width="15.07" height="15.07" transform="translate(-304.35 483.61) rotate(-64.26)" style="fill: #fff; stroke: #fff; stroke-miterlimit: 10; stroke-width: .83px;"/>
          <rect x="345.13" y="357.43" width="15.07" height="15.07" transform="translate(-140.07 243.37) rotate(-32.12)" style="fill: #fff; stroke: #fff; stroke-miterlimit: 10; stroke-width: .83px;"/>
          <rect x="513.37" y="337.81" width="15.07" height="15.07" transform="translate(56.35 763.43) rotate(-75.53)" style="fill: #fff; stroke: #fff; stroke-miterlimit: 10; stroke-width: .83px;"/>
          <rect x="655.98" y="439.78" width="15.07" height="15.07" transform="translate(-136.45 427.26) rotate(-32.55)" style="fill: #fff; stroke: #fff; stroke-miterlimit: 10; stroke-width: .83px;"/>
          <rect x="699.45" y="604.8" width="15.07" height="15.07" transform="translate(33.1 1260.92) rotate(-84.8)" style="fill: #fff; stroke: #fff; stroke-miterlimit: 10; stroke-width: .83px;"/>
          <rect x="630.74" y="757.26" width="15.07" height="15.07" transform="translate(-357.59 788.22) rotate(-51.5)" style="fill: #fff; stroke: #fff; stroke-miterlimit: 10; stroke-width: .83px;"/>
          <rect x="475.17" y="830.51" width="15.07" height="15.07" transform="translate(-55.88 34.77) rotate(-3.9)" style="fill: #fff; stroke: #fff; stroke-miterlimit: 10; stroke-width: .83px;"/>
          <g>
            <rect x="251.96" y="728.86" width="15.07" height="15.07" transform="translate(-422.8 356.81) rotate(-41.5)" style="fill: #fff; isolation: isolate; opacity: .33; stroke: #fff; stroke-miterlimit: 10; stroke-width: .58px;"/>
            <rect x="202.87" y="559.27" width="15.07" height="15.07" transform="translate(-390.51 633.41) rotate(-75.96)" style="fill: #fff; isolation: isolate; opacity: .33; stroke: #fff; stroke-miterlimit: 10; stroke-width: .58px;"/>
            <rect x="275.42" y="408.24" width="15.07" height="15.07" transform="translate(-211.12 321.86) rotate(-45)" style="fill: #fff; isolation: isolate; opacity: .33; stroke: #fff; stroke-miterlimit: 10; stroke-width: .58px;"/>
            <rect x="431.02" y="333.25" width="15.07" height="15.07" transform="translate(-10.77 14.34) rotate(-1.85)" style="fill: #fff; isolation: isolate; opacity: .33; stroke: #fff; stroke-miterlimit: 10; stroke-width: .58px;"/>
            <rect x="593.29" y="378.84" width="15.07" height="15.07" transform="translate(-66.26 641.85) rotate(-53.7)" style="fill: #fff; isolation: isolate; opacity: .33; stroke: #fff; stroke-miterlimit: 10; stroke-width: .58px;"/>
            <rect x="693.13" y="515.8" width="15.07" height="15.07" transform="translate(-128.74 246.04) rotate(-18.27)" style="fill: #fff; isolation: isolate; opacity: .33; stroke: #fff; stroke-miterlimit: 10; stroke-width: .58px;"/>
            <rect x="681.6" y="681.9" width="15.07" height="15.07" transform="translate(-224.89 1028.23) rotate(-65.35)" style="fill: #fff; isolation: isolate; opacity: .33; stroke: #fff; stroke-miterlimit: 10; stroke-width: .58px;"/>
            <rect x="558.21" y="808.07" width="15.07" height="15.07" transform="translate(-298.33 327.08) rotate(-25.77)" style="fill: #fff; isolation: isolate; opacity: .33; stroke: #fff; stroke-miterlimit: 10; stroke-width: .58px;"/>
            <rect x="390.36" y="822.44" width="15.07" height="15.07" transform="translate(-510.29 979.56) rotate(-73.74)" style="fill: #fff; isolation: isolate; opacity: .33; stroke: #fff; stroke-miterlimit: 10; stroke-width: .58px;"/>
          </g>
          <rect x="312.93" y="787.72" width="15.07" height="15.07" transform="translate(-513.31 595.36) rotate(-54.57)" style="fill: #fff; stroke: #fff; stroke-miterlimit: 10; stroke-width: .83px;"/>
          <path d="m143.21,588.93l-12.51-7.22c-1.75-1.01-3.94.25-3.94,2.28v14.44c0,2.02,2.19,3.29,3.94,2.28l12.51-7.22c1.75-1.01,1.75-3.54,0-4.55h0Z" style="fill: #fff; stroke: #fff; stroke-miterlimit: 10; stroke-width: .83px;"/>
          <path d="m785.69,589.05l12.51-7.22c1.75-1.01,3.94.25,3.94,2.28v14.44c0,2.02-2.19,3.29-3.94,2.28l-12.51-7.22c-1.75-1.01-1.75-3.54,0-4.55h0Z" style="fill: #fff; stroke: #fff; stroke-miterlimit: 10; stroke-width: .83px;"/>
          <path d="m458.6,270.05l-7.22-12.51c-1.01-1.75.25-3.94,2.28-3.94h14.44c2.02,0,3.29,2.19,2.28,3.94l-7.22,12.51c-1.01,1.75-3.54,1.75-4.55,0h-.01Z" style="fill: #fff; stroke: #fff; stroke-miterlimit: 10; stroke-width: .83px;"/>
          <path d="m463.15,909.34l7.22,12.51c1.01,1.75-.25,3.94-2.28,3.94h-14.44c-2.02,0-3.29-2.19-2.28-3.94l7.22-12.51c1.01-1.75,3.54-1.75,4.55,0h.01Z" style="fill: #fff; stroke: #fff; stroke-miterlimit: 10; stroke-width: .83px;"/>
          <path d="m269.17,500.98s-42.52,102.85,7.91,189.53l-12.33,7.51s-50.3-85.28-7.12-201.78l11.54,4.75h0Z" style="fill: #66a7b9; isolation: isolate; opacity: .33; stroke: #fff; stroke-miterlimit: 10; stroke-width: .58px;"/>
          <path d="m358.35,405.43s92.32-56.35,190.58-9.89l5.47-14.99s-105.83-44.99-200.14,10.22l4.1,14.66h0Z" style="fill: #fff; isolation: isolate; opacity: .33; stroke: #fff; stroke-miterlimit: 10; stroke-width: .58px;"/>
          <path d="m643.88,487.5l12.19-6.59s55.42,87.33,7.61,199.38l-12.55-5.48s47.46-110.2-7.25-187.31h0Z" style="fill: #fff; isolation: isolate; opacity: .33; stroke: #fff; stroke-miterlimit: 10; stroke-width: .58px;"/>
          <path d="m366.39,790.36s94.91,49.1,200.29-4.78l-4.53-11.27s-84.11,51.31-190.52,5.17l-5.23,10.87h0Z" style="fill: #fff; isolation: isolate; opacity: .33; stroke: #fff; stroke-miterlimit: 10; stroke-width: .58px;"/>
          <circle cx="465.08" cy="590.93" r="306.19" style="fill: none; isolation: isolate; opacity: .57; stroke: #fff; stroke-miterlimit: 10; stroke-width: 5.2px;"/>
          <circle cx="461.14" cy="587.52" r="262" style="fill: none; stroke: #fff; stroke-miterlimit: 10; stroke-width: .83px;"/>
          <g>
            <g style="opacity: .31;">
              <line x1="333.96" y1="761.56" x2="319.69" y2="781.61" style="fill: none; isolation: isolate; opacity: .62; stroke: #fff; stroke-miterlimit: 10; stroke-width: 2.46px;"/>
              <line x1="322.78" y1="753.46" x2="308.51" y2="773.51" style="fill: none; isolation: isolate; opacity: .62; stroke: #fff; stroke-miterlimit: 10; stroke-width: 2.46px;"/>
              <line x1="313.52" y1="744.2" x2="295.78" y2="763.48" style="fill: none; isolation: isolate; opacity: .62; stroke: #fff; stroke-miterlimit: 10; stroke-width: 2.46px;"/>
              <line x1="302.34" y1="733.02" x2="283.83" y2="753.84" style="fill: none; isolation: isolate; opacity: .62; stroke: #fff; stroke-miterlimit: 10; stroke-width: 2.46px;"/>
              <line x1="294.63" y1="722.61" x2="274.57" y2="740.35" style="fill: none; isolation: isolate; opacity: .62; stroke: #fff; stroke-miterlimit: 10; stroke-width: 2.46px;"/>
              <line x1="286.52" y1="714.12" x2="269.17" y2="728" style="fill: none; isolation: isolate; opacity: .62; stroke: #fff; stroke-miterlimit: 10; stroke-width: 2.46px;"/>
              <line x1="277.65" y1="701.78" x2="259.53" y2="714.12" style="fill: none; isolation: isolate; opacity: .62; stroke: #fff; stroke-miterlimit: 10; stroke-width: 2.46px;"/>
              <line x1="271.48" y1="690.98" x2="251.43" y2="703.71" style="fill: none; isolation: isolate; opacity: .62; stroke: #fff; stroke-miterlimit: 10; stroke-width: 2.46px;"/>
              <line x1="263" y1="677.87" x2="242.94" y2="690.21" style="fill: none; isolation: isolate; opacity: .62; stroke: #fff; stroke-miterlimit: 10; stroke-width: 2.46px;"/>
              <line x1="256.83" y1="664.37" x2="237.93" y2="675.55" style="fill: none; isolation: isolate; opacity: .62; stroke: #fff; stroke-miterlimit: 10; stroke-width: 2.46px;"/>
              <line x1="343.99" y1="771.58" x2="332.8" y2="789.32" style="fill: none; isolation: isolate; opacity: .62; stroke: #fff; stroke-miterlimit: 10; stroke-width: 2.46px;"/>
              <line x1="356.33" y1="778.14" x2="345.15" y2="797.42" style="fill: none; isolation: isolate; opacity: .62; stroke: #fff; stroke-miterlimit: 10; stroke-width: 2.46px;"/>
              <line x1="368.28" y1="785.46" x2="359.42" y2="803.21" style="fill: none; isolation: isolate; opacity: .62; stroke: #fff; stroke-miterlimit: 10; stroke-width: 2.46px;"/>
              <line x1="383.32" y1="791.25" x2="374.84" y2="809.38" style="fill: none; isolation: isolate; opacity: .62; stroke: #fff; stroke-miterlimit: 10; stroke-width: 2.46px;"/>
              <line x1="396.44" y1="795.88" x2="389.11" y2="815.55" style="fill: none; isolation: isolate; opacity: .62; stroke: #fff; stroke-miterlimit: 10; stroke-width: 2.46px;"/>
              <line x1="408.01" y1="800.51" x2="402.61" y2="819.02" style="fill: none; isolation: isolate; opacity: .62; stroke: #fff; stroke-miterlimit: 10; stroke-width: 2.46px;"/>
              <line x1="421.12" y1="803.21" x2="416.11" y2="822.49" style="fill: none; isolation: isolate; opacity: .62; stroke: #fff; stroke-miterlimit: 10; stroke-width: 2.46px;"/>
              <line x1="433.08" y1="805.91" x2="429.6" y2="824.8" style="fill: none; isolation: isolate; opacity: .62; stroke: #fff; stroke-miterlimit: 10; stroke-width: 2.46px;"/>
              <line x1="446.58" y1="807.45" x2="446.19" y2="824.8" style="fill: none; isolation: isolate; opacity: .62; stroke: #fff; stroke-miterlimit: 10; stroke-width: 2.46px;"/>
              <line x1="458.53" y1="809.38" x2="458.91" y2="827.12" style="fill: none; isolation: isolate; opacity: .62; stroke: #fff; stroke-miterlimit: 10; stroke-width: 2.46px;"/>
              <line x1="468.94" y1="807.83" x2="468.94" y2="826.35" style="fill: none; isolation: isolate; opacity: .62; stroke: #fff; stroke-miterlimit: 10; stroke-width: 2.46px;"/>
              <line x1="482.83" y1="807.83" x2="483.21" y2="824.8" style="fill: none; stroke: #fff; stroke-miterlimit: 10; stroke-width: .83px;"/>
              <line x1="496.71" y1="805.52" x2="497.87" y2="822.49" style="fill: none; isolation: isolate; opacity: .62; stroke: #fff; stroke-miterlimit: 10; stroke-width: 2.46px;"/>
              <line x1="509.44" y1="803.21" x2="511.75" y2="820.18" style="fill: none; isolation: isolate; opacity: .62; stroke: #fff; stroke-miterlimit: 10; stroke-width: 2.46px;"/>
              <line x1="522.94" y1="800.12" x2="525.64" y2="816.32" style="fill: none; isolation: isolate; opacity: .62; stroke: #fff; stroke-miterlimit: 10; stroke-width: 2.46px;"/>
              <line x1="534.12" y1="795.88" x2="540.29" y2="814" style="fill: none; isolation: isolate; opacity: .62; stroke: #fff; stroke-miterlimit: 10; stroke-width: 2.46px;"/>
              <line x1="544.92" y1="791.25" x2="553.4" y2="809.38" style="fill: none; isolation: isolate; opacity: .62; stroke: #fff; stroke-miterlimit: 10; stroke-width: 2.46px;"/>
              <line x1="558.42" y1="783.93" x2="569.99" y2="803.21" style="fill: none; isolation: isolate; opacity: .62; stroke: #fff; stroke-miterlimit: 10; stroke-width: 2.46px;"/>
              <line x1="571.53" y1="776.98" x2="583.48" y2="794.34" style="fill: none; isolation: isolate; opacity: .62; stroke: #fff; stroke-miterlimit: 10; stroke-width: 2.46px;"/>
              <line x1="580.79" y1="768.5" x2="596.98" y2="785.85" style="fill: none; isolation: isolate; opacity: .62; stroke: #fff; stroke-miterlimit: 10; stroke-width: 2.46px;"/>
              <line x1="592.74" y1="760.01" x2="609.33" y2="774.67" style="fill: none; isolation: isolate; opacity: .62; stroke: #fff; stroke-miterlimit: 10; stroke-width: 2.46px;"/>
              <line x1="603.54" y1="751.53" x2="622.43" y2="767.34" style="fill: none; isolation: isolate; opacity: .62; stroke: #fff; stroke-miterlimit: 10; stroke-width: 2.46px;"/>
              <line x1="613.18" y1="742.66" x2="631.31" y2="757.31" style="fill: none; isolation: isolate; opacity: .62; stroke: #fff; stroke-miterlimit: 10; stroke-width: 2.46px;"/>
              <line x1="625.9" y1="733.02" x2="642.88" y2="746.51" style="fill: none; isolation: isolate; opacity: .62; stroke: #fff; stroke-miterlimit: 10; stroke-width: 2.46px;"/>
              <line x1="634.39" y1="720.67" x2="653.68" y2="734.56" style="fill: none; isolation: isolate; opacity: .62; stroke: #fff; stroke-miterlimit: 10; stroke-width: 2.46px;"/>
              <line x1="642.11" y1="710.26" x2="659.85" y2="721.83" style="fill: none; isolation: isolate; opacity: .62; stroke: #fff; stroke-miterlimit: 10; stroke-width: 2.46px;"/>
              <line x1="650.97" y1="698.69" x2="671.42" y2="710.65" style="fill: none; isolation: isolate; opacity: .62; stroke: #fff; stroke-miterlimit: 10; stroke-width: 2.46px;"/>
              <line x1="656.76" y1="686.35" x2="678.36" y2="696.77" style="fill: none; isolation: isolate; opacity: .62; stroke: #fff; stroke-miterlimit: 10; stroke-width: 2.46px;"/>
              <line x1="661.39" y1="674.4" x2="687.22" y2="685.2" style="fill: none; isolation: isolate; opacity: .62; stroke: #fff; stroke-miterlimit: 10; stroke-width: 2.46px;"/>
              <line x1="667.56" y1="660.13" x2="693.78" y2="669.77" style="fill: none; isolation: isolate; opacity: .62; stroke: #fff; stroke-miterlimit: 10; stroke-width: 2.46px;"/>
              <line x1="674.12" y1="647.78" x2="695.71" y2="654.73" style="fill: none; isolation: isolate; opacity: .62; stroke: #fff; stroke-miterlimit: 10; stroke-width: 2.46px;"/>
              <line x1="676.43" y1="633.13" x2="699.57" y2="640.07" style="fill: none; isolation: isolate; opacity: .62; stroke: #fff; stroke-miterlimit: 10; stroke-width: 2.46px;"/>
              <line x1="680.67" y1="620.79" x2="702.27" y2="626.19" style="fill: none; isolation: isolate; opacity: .62; stroke: #fff; stroke-miterlimit: 10; stroke-width: 2.46px;"/>
              <line x1="680.67" y1="606.52" x2="704.58" y2="610.76" style="fill: none; isolation: isolate; opacity: .62; stroke: #fff; stroke-miterlimit: 10; stroke-width: 2.46px;"/>
              <line x1="682.22" y1="593.02" x2="706.51" y2="596.11" style="fill: none; isolation: isolate; opacity: .62; stroke: #fff; stroke-miterlimit: 10; stroke-width: 2.46px;"/>
              <line x1="680.67" y1="578.75" x2="707.28" y2="579.14" style="fill: none; isolation: isolate; opacity: .62; stroke: #fff; stroke-miterlimit: 10; stroke-width: 2.46px;"/>
              <line x1="680.67" y1="564.48" x2="706.9" y2="563.33" style="fill: none; isolation: isolate; opacity: .62; stroke: #fff; stroke-miterlimit: 10; stroke-width: 2.46px;"/>
              <line x1="680.67" y1="550.21" x2="705.74" y2="546.74" style="fill: none; isolation: isolate; opacity: .62; stroke: #fff; stroke-miterlimit: 10; stroke-width: 2.46px;"/>
              <line x1="676.43" y1="538.64" x2="703.43" y2="531.7" style="fill: none; isolation: isolate; opacity: .62; stroke: #fff; stroke-miterlimit: 10; stroke-width: 2.46px;"/>
              <line x1="674.12" y1="525.92" x2="699.57" y2="515.51" style="fill: none; isolation: isolate; opacity: .62; stroke: #fff; stroke-miterlimit: 10; stroke-width: 2.46px;"/>
              <line x1="670.26" y1="514.73" x2="694.17" y2="500.85" style="fill: none; isolation: isolate; opacity: .62; stroke: #fff; stroke-miterlimit: 10; stroke-width: 2.46px;"/>
              <line x1="664.09" y1="500.08" x2="687.22" y2="485.42" style="fill: none; isolation: isolate; opacity: .62; stroke: #fff; stroke-miterlimit: 10; stroke-width: 2.46px;"/>
              <line x1="656.38" y1="486.58" x2="679.13" y2="471.93" style="fill: none; isolation: isolate; opacity: .62; stroke: #fff; stroke-miterlimit: 10; stroke-width: 2.46px;"/>
              <line x1="650.97" y1="472.7" x2="671.8" y2="459.97" style="fill: none; isolation: isolate; opacity: .62; stroke: #fff; stroke-miterlimit: 10; stroke-width: 2.46px;"/>
              <line x1="642.88" y1="459.97" x2="661" y2="448.4" style="fill: none; isolation: isolate; opacity: .62; stroke: #fff; stroke-miterlimit: 10; stroke-width: 2.46px;"/>
              <line x1="634.39" y1="449.17" x2="651.75" y2="434.51" style="fill: none; isolation: isolate; opacity: .62; stroke: #fff; stroke-miterlimit: 10; stroke-width: 2.46px;"/>
              <line x1="627.06" y1="438.37" x2="645.19" y2="420.63" style="fill: none; isolation: isolate; opacity: .62; stroke: #fff; stroke-miterlimit: 10; stroke-width: 2.46px;"/>
              <line x1="618.19" y1="429.5" x2="634.01" y2="412.92" style="fill: none; isolation: isolate; opacity: .62; stroke: #fff; stroke-miterlimit: 10; stroke-width: 2.46px;"/>
              <line x1="605.47" y1="421.02" x2="621.66" y2="402.12" style="fill: none; isolation: isolate; opacity: .62; stroke: #fff; stroke-miterlimit: 10; stroke-width: 2.46px;"/>
              <line x1="595.83" y1="411.38" x2="613.57" y2="392.48" style="fill: none; isolation: isolate; opacity: .62; stroke: #fff; stroke-miterlimit: 10; stroke-width: 2.46px;"/>
              <line x1="585.41" y1="401.73" x2="599.3" y2="382.84" style="fill: none; isolation: isolate; opacity: .62; stroke: #fff; stroke-miterlimit: 10; stroke-width: 2.46px;"/>
              <line x1="573.46" y1="395.56" x2="586.96" y2="375.12" style="fill: none; isolation: isolate; opacity: .62; stroke: #fff; stroke-miterlimit: 10; stroke-width: 2.46px;"/>
              <line x1="561.5" y1="390.16" x2="567.67" y2="366.25" style="fill: none; isolation: isolate; opacity: .62; stroke: #fff; stroke-miterlimit: 10; stroke-width: 2.46px;"/>
              <line x1="547.62" y1="385.15" x2="549.16" y2="356.61" style="fill: none; isolation: isolate; opacity: .62; stroke: #fff; stroke-miterlimit: 10; stroke-width: 2.46px;"/>
              <line x1="533.35" y1="378.21" x2="533.74" y2="354.68" style="fill: none; isolation: isolate; opacity: .62; stroke: #fff; stroke-miterlimit: 10; stroke-width: 2.46px;"/>
              <line x1="519.08" y1="371.65" x2="519.85" y2="348.9" style="fill: none; isolation: isolate; opacity: .62; stroke: #fff; stroke-miterlimit: 10; stroke-width: 2.46px;"/>
              <line x1="506.74" y1="368.95" x2="506.74" y2="346.97" style="fill: none; isolation: isolate; opacity: .62; stroke: #fff; stroke-miterlimit: 10; stroke-width: 2.46px;"/>
              <line x1="491.69" y1="366.64" x2="491.69" y2="346.97" style="fill: none; isolation: isolate; opacity: .62; stroke: #fff; stroke-miterlimit: 10; stroke-width: 2.46px;"/>
              <line x1="478.97" y1="366.64" x2="478.97" y2="346.97" style="fill: none; isolation: isolate; opacity: .62; stroke: #fff; stroke-miterlimit: 10; stroke-width: 2.46px;"/>
              <line x1="464.7" y1="366.64" x2="464.7" y2="342.73" style="fill: none; isolation: isolate; opacity: .62; stroke: #fff; stroke-miterlimit: 10; stroke-width: 2.46px;"/>
              <line x1="450.43" y1="366.64" x2="449.66" y2="342.73" style="fill: none; isolation: isolate; opacity: .62; stroke: #fff; stroke-miterlimit: 10; stroke-width: 2.46px;"/>
              <line x1="438.48" y1="366.64" x2="436.55" y2="344.66" style="fill: none; isolation: isolate; opacity: .62; stroke: #fff; stroke-miterlimit: 10; stroke-width: 2.46px;"/>
              <line x1="424.98" y1="368.95" x2="421.89" y2="346.97" style="fill: none; isolation: isolate; opacity: .62; stroke: #fff; stroke-miterlimit: 10; stroke-width: 2.46px;"/>
              <line x1="413.02" y1="371.65" x2="408.01" y2="351.6" style="fill: none; isolation: isolate; opacity: .62; stroke: #fff; stroke-miterlimit: 10; stroke-width: 2.46px;"/>
              <line x1="399.53" y1="375.51" x2="392.2" y2="356.61" style="fill: none; isolation: isolate; opacity: .62; stroke: #fff; stroke-miterlimit: 10; stroke-width: 2.46px;"/>
              <line x1="387.57" y1="378.21" x2="377.16" y2="361.62" style="fill: none; isolation: isolate; opacity: .62; stroke: #fff; stroke-miterlimit: 10; stroke-width: 2.46px;"/>
              <line x1="375.61" y1="385.15" x2="364.81" y2="368.95" style="fill: none; isolation: isolate; opacity: .62; stroke: #fff; stroke-miterlimit: 10; stroke-width: 2.46px;"/>
              <line x1="360.19" y1="392.48" x2="350.54" y2="373.97" style="fill: none; isolation: isolate; opacity: .62; stroke: #fff; stroke-miterlimit: 10; stroke-width: 2.46px;"/>
              <line x1="348.62" y1="397.87" x2="337.43" y2="380.52" style="fill: none; isolation: isolate; opacity: .62; stroke: #fff; stroke-miterlimit: 10; stroke-width: 2.46px;"/>
              <line x1="337.43" y1="405.2" x2="325.86" y2="389.39" style="fill: none; isolation: isolate; opacity: .62; stroke: #fff; stroke-miterlimit: 10; stroke-width: 2.46px;"/>
              <line x1="325.47" y1="413.69" x2="312.37" y2="397.49" style="fill: none; isolation: isolate; opacity: .62; stroke: #fff; stroke-miterlimit: 10; stroke-width: 2.46px;"/>
              <line x1="315.84" y1="423.33" x2="301.95" y2="408.29" style="fill: none; isolation: isolate; opacity: .62; stroke: #fff; stroke-miterlimit: 10; stroke-width: 2.46px;"/>
              <line x1="305.81" y1="431.82" x2="289.61" y2="416" style="fill: none; isolation: isolate; opacity: .62; stroke: #fff; stroke-miterlimit: 10; stroke-width: 2.46px;"/>
              <line x1="297.71" y1="441.84" x2="279.97" y2="426.41" style="fill: none; isolation: isolate; opacity: .62; stroke: #fff; stroke-miterlimit: 10; stroke-width: 2.46px;"/>
              <line x1="288.84" y1="451.87" x2="271.48" y2="437.6" style="fill: none; isolation: isolate; opacity: .62; stroke: #fff; stroke-miterlimit: 10; stroke-width: 2.46px;"/>
              <line x1="281.89" y1="462.67" x2="262.23" y2="448.4" style="fill: none; isolation: isolate; opacity: .62; stroke: #fff; stroke-miterlimit: 10; stroke-width: 2.46px;"/>
              <line x1="274.57" y1="473.85" x2="252.97" y2="463.05" style="fill: none; isolation: isolate; opacity: .62; stroke: #fff; stroke-miterlimit: 10; stroke-width: 2.46px;"/>
              <line x1="268.79" y1="488.12" x2="247.19" y2="478.09" style="fill: none; isolation: isolate; opacity: .62; stroke: #fff; stroke-miterlimit: 10; stroke-width: 2.46px;"/>
              <line x1="263.77" y1="498.92" x2="241.02" y2="490.05" style="fill: none; isolation: isolate; opacity: .62; stroke: #fff; stroke-miterlimit: 10; stroke-width: 2.46px;"/>
              <line x1="254.52" y1="511.26" x2="234.07" y2="505.09" style="fill: none; isolation: isolate; opacity: .62; stroke: #fff; stroke-miterlimit: 10; stroke-width: 2.46px;"/>
              <line x1="252.58" y1="524.37" x2="232.15" y2="520.9" style="fill: none; isolation: isolate; opacity: .62; stroke: #fff; stroke-miterlimit: 10; stroke-width: 2.46px;"/>
              <line x1="249.5" y1="535.17" x2="229.83" y2="535.17" style="fill: none; isolation: isolate; opacity: .62; stroke: #fff; stroke-miterlimit: 10; stroke-width: 2.46px;"/>
              <line x1="244.1" y1="548.67" x2="225.59" y2="548.67" style="fill: none; isolation: isolate; opacity: .62; stroke: #fff; stroke-miterlimit: 10; stroke-width: 2.46px;"/>
              <line x1="244.1" y1="564.1" x2="225.59" y2="564.1" style="fill: none; isolation: isolate; opacity: .62; stroke: #fff; stroke-miterlimit: 10; stroke-width: 2.46px;"/>
              <line x1="242.17" y1="576.82" x2="223.28" y2="576.82" style="fill: none; isolation: isolate; opacity: .62; stroke: #fff; stroke-miterlimit: 10; stroke-width: 2.46px;"/>
              <line x1="244.1" y1="592.25" x2="225.59" y2="594.56" style="fill: none; isolation: isolate; opacity: .62; stroke: #fff; stroke-miterlimit: 10; stroke-width: 2.46px;"/>
              <line x1="244.1" y1="603.82" x2="223.28" y2="608.45" style="fill: none; isolation: isolate; opacity: .62; stroke: #fff; stroke-miterlimit: 10; stroke-width: 2.46px;"/>
              <line x1="247.19" y1="615.77" x2="225.59" y2="622.72" style="fill: none; isolation: isolate; opacity: .62; stroke: #fff; stroke-miterlimit: 10; stroke-width: 2.46px;"/>
              <line x1="247.19" y1="626.57" x2="227.13" y2="635.06" style="fill: none; isolation: isolate; opacity: .62; stroke: #fff; stroke-miterlimit: 10; stroke-width: 2.46px;"/>
              <line x1="249.5" y1="640.84" x2="229.83" y2="648.94" style="fill: none; isolation: isolate; opacity: .62; stroke: #fff; stroke-miterlimit: 10; stroke-width: 2.46px;"/>
              <line x1="252.97" y1="652.41" x2="233.69" y2="661.28" style="fill: none; isolation: isolate; opacity: .62; stroke: #fff; stroke-miterlimit: 10; stroke-width: 2.46px;"/>
            </g>
            <circle cx="462.58" cy="587.94" r="221.26" style="fill: none; isolation: isolate; opacity: .43; stroke: #fff; stroke-miterlimit: 10; stroke-width: 5.65px;"/>
          </g>
        </g>
      </g>
    </g>
  </g>
</svg>